<?xml version="1.0" encoding="utf-8"?>
<!-- Generator: Adobe Illustrator 16.0.0, SVG Export Plug-In . SVG Version: 6.00 Build 0)  -->
<!DOCTYPE svg PUBLIC "-//W3C//DTD SVG 1.1//EN" "http://www.w3.org/Graphics/SVG/1.1/DTD/svg11.dtd">
<svg version="1.1" id="Layer_1" xmlns="http://www.w3.org/2000/svg" xmlns:xlink="http://www.w3.org/1999/xlink" x="0px" y="0px"
	 width="23.776px" height="29px" viewBox="0 0 23.776 29" enable-background="new 0 0 23.776 29" xml:space="preserve">
<path d="M9.528,1.667c0.199-0.492,0.541-0.914,0.981-1.211S11.469,0,12,0c0.531,0,1.05,0.159,1.491,0.456s0.782,0.719,0.981,1.211
	c1.972,0.542,3.711,1.717,4.95,3.343c1.24,1.626,1.911,3.614,1.911,5.659v6.263l2.443,3.664c0.134,0.201,0.211,0.435,0.223,0.676
	c0.011,0.24-0.042,0.48-0.156,0.693s-0.284,0.391-0.491,0.515s-0.444,0.189-0.685,0.189H16.62c-0.161,1.111-0.716,2.127-1.564,2.861
	c-0.848,0.735-1.933,1.14-3.056,1.14c-1.122,0-2.207-0.404-3.055-1.14c-0.849-0.734-1.404-1.75-1.564-2.861H1.333
	c-0.241,0-0.478-0.065-0.686-0.189c-0.207-0.124-0.376-0.302-0.49-0.515s-0.168-0.453-0.156-0.693
	c0.012-0.241,0.089-0.475,0.223-0.676l2.443-3.664v-6.263C2.667,6.371,5.574,2.749,9.528,1.667z M10.115,22.669
	c0.138,0.391,0.393,0.729,0.731,0.968c0.338,0.238,0.741,0.367,1.155,0.367c0.414,0,0.817-0.129,1.155-0.367
	c0.338-0.239,0.593-0.577,0.731-0.968h-3.773H10.115z M12,4.002c-1.768,0-3.463,0.703-4.714,1.953
	c-1.25,1.25-1.953,2.946-1.953,4.714v6.667c0,0.264-0.078,0.521-0.224,0.74l-1.284,1.926h16.348l-1.284-1.926
	c-0.146-0.22-0.223-0.477-0.223-0.74v-6.667c0-1.768-0.703-3.463-1.953-4.714C15.464,4.705,13.768,4.002,12,4.002z"/>
</svg>
