<svg width="14" height="14" viewBox="0 0 14 14" fill="none" xmlns="http://www.w3.org/2000/svg">
<path d="M0.744518 13.7447C0.803481 13.7518 0.863087 13.7518 0.922051 13.7447L3.88094 13.0052C4.0122 12.974 4.13243 12.9075 4.22861 12.8129L13.3198 3.69494C13.5953 3.41783 13.75 3.04298 13.75 2.65225C13.75 2.26152 13.5953 1.88667 13.3198 1.60956L12.151 0.433767C12.0136 0.296256 11.8505 0.187168 11.6709 0.112739C11.4913 0.0383097 11.2987 0 11.1043 0C10.9099 0 10.7174 0.0383097 10.5378 0.112739C10.3582 0.187168 10.195 0.296256 10.0576 0.433767L0.966434 9.52215C0.870853 9.61874 0.802028 9.73851 0.766709 9.86971L0.0269873 12.8277C0.000400141 12.9234 -0.00663687 13.0234 0.006296 13.1219C0.0192289 13.2203 0.0518667 13.3152 0.102263 13.4008C0.152658 13.4863 0.21978 13.5609 0.299623 13.62C0.379465 13.6791 0.470394 13.7215 0.566984 13.7447C0.625947 13.7518 0.685554 13.7518 0.744518 13.7447ZM11.1006 1.47645L12.2768 2.65225L11.1006 3.82804L9.93186 2.65225L11.1006 1.47645ZM2.15739 10.4243L8.88146 3.69494L10.0576 4.87073L3.32615 11.6001L1.76533 11.9847L2.15739 10.4243Z" fill="white"/>
</svg>
