<svg width="25" height="25" viewBox="0 0 25 25" fill="none" xmlns="http://www.w3.org/2000/svg">
<path d="M9.70304 14.011H12.607C12.765 14.0119 12.9215 13.9817 13.0677 13.922C13.2139 13.8622 13.3469 13.7743 13.459 13.663L17.755 9.36703C17.9785 9.1422 18.104 8.83806 18.104 8.52103C18.104 8.20401 17.9785 7.89987 17.755 7.67503L14.851 4.79504C14.6262 4.57153 14.3221 4.44608 14.005 4.44608C13.688 4.44608 13.3839 4.57153 13.159 4.79504L8.86304 9.09103C8.63694 9.31259 8.50754 9.61451 8.50304 9.93104V12.811C8.50304 13.1293 8.62946 13.4345 8.85451 13.6596C9.07955 13.8846 9.38478 14.011 9.70304 14.011ZM10.903 10.411L14.011 7.33903L15.211 8.53903L12.115 11.611H10.915L10.903 10.411ZM23.611 15.211H22.411V3.21104H23.611C23.9293 3.21104 24.2345 3.08461 24.4596 2.85956C24.6846 2.63452 24.811 2.32929 24.811 2.01104C24.811 1.69278 24.6846 1.38755 24.4596 1.16251C24.2345 0.937463 23.9293 0.811035 23.611 0.811035H2.01104C1.69278 0.811035 1.38755 0.937463 1.16251 1.16251C0.937463 1.38755 0.811035 1.69278 0.811035 2.01104C0.811035 2.32929 0.937463 2.63452 1.16251 2.85956C1.38755 3.08461 1.69278 3.21104 2.01104 3.21104H3.21104V15.211H2.01104C1.69278 15.211 1.38755 15.3375 1.16251 15.5625C0.937463 15.7876 0.811035 16.0928 0.811035 16.411C0.811035 16.7293 0.937463 17.0345 1.16251 17.2596C1.38755 17.4846 1.69278 17.611 2.01104 17.611H11.611V18.991L6.15104 22.591C5.92704 22.7297 5.75489 22.9382 5.66116 23.1844C5.56742 23.4306 5.55732 23.7008 5.63239 23.9533C5.70746 24.2059 5.86354 24.4266 6.07656 24.5817C6.28957 24.7367 6.54767 24.8173 6.81104 24.811C7.04696 24.8137 7.27778 24.7424 7.47104 24.607L11.611 21.871V23.611C11.611 23.9293 11.7375 24.2345 11.9625 24.4596C12.1876 24.6846 12.4928 24.811 12.811 24.811C13.1293 24.811 13.4345 24.6846 13.6596 24.4596C13.8846 24.2345 14.011 23.9293 14.011 23.611V21.871L18.151 24.607C18.3443 24.7424 18.5751 24.8137 18.811 24.811C19.0674 24.8091 19.3164 24.725 19.5216 24.5712C19.7267 24.4174 19.8772 24.202 19.951 23.9565C20.0248 23.7109 20.018 23.4482 19.9316 23.2068C19.8453 22.9654 19.6838 22.758 19.471 22.615L14.011 19.015V17.611H23.611C23.9293 17.611 24.2345 17.4846 24.4596 17.2596C24.6846 17.0345 24.811 16.7293 24.811 16.411C24.811 16.0928 24.6846 15.7876 24.4596 15.5625C24.2345 15.3375 23.9293 15.211 23.611 15.211ZM20.011 15.211H5.61104V3.21104H20.011V15.211Z" fill="black"/>
</svg>
