<svg width="22" height="22" viewBox="0 0 22 22" fill="none" xmlns="http://www.w3.org/2000/svg">
<path d="M16.1812 3.05236L6.56437 12.6801V17.5049H11.3892L21.006 7.88812C21.6427 7.24666 22 6.37951 22 5.47571C22 4.57191 21.6427 3.70476 21.006 3.0633C20.3566 2.44306 19.4938 2.09605 18.5958 2.09401C17.6978 2.09197 16.8334 2.43507 16.1812 3.05236ZM19.4634 6.33455L10.4921 15.3168H8.7525V13.5772L17.7347 4.59499C17.9689 4.37097 18.2805 4.24593 18.6045 4.24593C18.9286 4.24593 19.2402 4.37097 19.4743 4.59499C19.5884 4.70961 19.6786 4.84569 19.7399 4.99536C19.8011 5.14503 19.8321 5.30534 19.8311 5.46705C19.8301 5.62876 19.7971 5.78867 19.7339 5.93755C19.6708 6.08644 19.5789 6.22137 19.4634 6.33455Z" fill="black"/>
<path d="M17.505 15.3169H15.3169V19.6931H2.18812V5.91888L5.91888 2.18812H16.4109V0H5.02175L0 5.02175V21.8812H17.505V15.3169Z" fill="black"/>
</svg>
