<svg width="58" height="58" viewBox="0 0 58 58" fill="none" xmlns="http://www.w3.org/2000/svg">
<path d="M22.5384 28.4837V39.1504C22.5384 39.504 22.3979 39.8432 22.1479 40.0932C21.8978 40.3432 21.5587 40.4837 21.2051 40.4837H18.5384C18.1848 40.4837 17.8457 40.3432 17.5956 40.0932C17.3456 39.8432 17.2051 39.504 17.2051 39.1504V29.8171C17.2051 29.4634 17.3456 29.1243 17.5956 28.8742C17.8457 28.6242 18.1848 28.4837 18.5384 28.4837H22.5384ZM22.5384 28.4837C23.9529 28.4837 25.3095 27.9218 26.3096 26.9216C27.3098 25.9214 27.8717 24.5649 27.8717 23.1504V21.8171C27.8717 21.1098 28.1527 20.4315 28.6528 19.9314C29.1529 19.4313 29.8312 19.1504 30.5384 19.1504C31.2457 19.1504 31.9239 19.4313 32.424 19.9314C32.9241 20.4315 33.2051 21.1098 33.2051 21.8171V28.4837H37.2051C37.9123 28.4837 38.5906 28.7647 39.0907 29.2648C39.5908 29.7649 39.8717 30.4431 39.8717 31.1504L38.5384 37.8171C38.3467 38.635 37.9829 39.3374 37.5019 39.8183C37.021 40.2993 36.4489 40.5328 35.8717 40.4837H26.5384C25.4775 40.4837 24.4601 40.0623 23.71 39.3122C22.9598 38.562 22.5384 37.5446 22.5384 36.4837" stroke="white" stroke-width="2.75" stroke-linecap="round" stroke-linejoin="round"/>
<circle cx="28.7051" cy="29.3174" r="27" stroke="white" stroke-width="3"/>
</svg>
