<?xml version="1.0" encoding="utf-8"?>
<!-- Generator: Adobe Illustrator 16.0.0, SVG Export Plug-In . SVG Version: 6.00 Build 0)  -->
<!DOCTYPE svg PUBLIC "-//W3C//DTD SVG 1.1//EN" "http://www.w3.org/Graphics/SVG/1.1/DTD/svg11.dtd">
<svg version="1.1" id="Layer_1" xmlns="http://www.w3.org/2000/svg" xmlns:xlink="http://www.w3.org/1999/xlink" x="0px" y="0px"
	 width="24px" height="27.25px" viewBox="78 1.75 24 27.25" enable-background="new 78 1.75 24 27.25" xml:space="preserve">
<path d="M100,5h-4V3h-2v2h-8V3h-2v2h-4c-0.53,0-1.039,0.211-1.414,0.586S78,6.47,78,7v20c0,0.53,0.211,1.039,0.586,1.414
	S79.47,29,80,29h20c0.529,0,1.039-0.211,1.414-0.586S101.999,27.53,102,27V7c-0.001-0.53-0.211-1.039-0.586-1.414S100.529,5,100,5z
	 M80,7h4v2h2V7h8v2h2V7h4v4H80V7z M80,13h5v6h-5V13z M93,27h-6v-6h6V27z M93,19h-6v-6h6V19z M95,27v-6h5l0.001,6H95z"/>
</svg>
