<svg width="22" height="22" viewBox="0 0 22 22" fill="none" xmlns="http://www.w3.org/2000/svg">
<path d="M11 0C17.0753 0 22 4.92445 22 10.9994C22 17.0744 17.0753 21.9989 11 21.9989C9.24439 22.0013 7.51391 21.5818 5.95431 20.7758L1.74571 21.9494C1.5109 22.0149 1.2629 22.0168 1.02711 21.955C0.791311 21.8931 0.576206 21.7697 0.40383 21.5973C0.231453 21.4249 0.108003 21.2098 0.046129 20.974C-0.0157453 20.7383 -0.0138194 20.4903 0.0517092 20.2555L1.22651 16.0504C0.418396 14.4895 -0.00227568 12.7571 9.25864e-06 10.9994C9.25864e-06 4.92445 4.92471 0 11 0ZM11 1.64992C8.52023 1.64992 6.14202 2.63495 4.38856 4.38833C2.63509 6.14171 1.65001 8.5198 1.65001 10.9994C1.65001 12.6164 2.06031 14.1706 2.83031 15.5499L2.99531 15.8469L1.77211 20.2291L6.15781 19.0059L6.45481 19.1709C7.70263 19.8647 9.09275 20.2634 10.5186 20.3367C11.9444 20.4099 13.3681 20.1557 14.6804 19.5934C15.9928 19.0312 17.1589 18.1759 18.0894 17.0931C19.02 16.0104 19.6902 14.7289 20.0487 13.347C20.4072 11.9651 20.4444 10.5195 20.1575 9.12095C19.8707 7.72242 19.2674 6.40815 18.3938 5.27893C17.5203 4.1497 16.3997 3.23551 15.1181 2.60645C13.8364 1.9774 12.4277 1.65019 11 1.64992V1.64992ZM11 14.8493C11.2917 14.8493 11.5715 14.9651 11.7778 15.1714C11.9841 15.3777 12.1 15.6575 12.1 15.9492C12.1 16.2409 11.9841 16.5207 11.7778 16.727C11.5715 16.9333 11.2917 17.0491 11 17.0491C10.7083 17.0491 10.4285 16.9333 10.2222 16.727C10.0159 16.5207 9.90001 16.2409 9.90001 15.9492C9.90001 15.6575 10.0159 15.3777 10.2222 15.1714C10.4285 14.9651 10.7083 14.8493 11 14.8493V14.8493ZM11 5.22474C11.8023 5.22474 12.5717 5.54342 13.139 6.11069C13.7063 6.67796 14.025 7.44734 14.025 8.24958C14.025 9.36053 13.6983 9.9809 12.8689 10.8444L12.683 11.0324C11.9988 11.7166 11.825 12.007 11.825 12.6494C11.825 12.8682 11.7381 13.078 11.5834 13.2327C11.4286 13.3874 11.2188 13.4743 11 13.4743C10.7812 13.4743 10.5714 13.3874 10.4166 13.2327C10.2619 13.078 10.175 12.8682 10.175 12.6494C10.175 11.5384 10.5017 10.918 11.3311 10.0546L11.517 9.8665C12.2012 9.18234 12.375 8.89195 12.375 8.24958C12.3739 7.8979 12.238 7.56003 11.9954 7.30545C11.7527 7.05087 11.4218 6.89894 11.0705 6.88091C10.7193 6.86287 10.3745 6.98011 10.107 7.2085C9.83961 7.43689 9.66986 7.75908 9.63271 8.10879L9.62501 8.24958C9.62501 8.46838 9.53809 8.67821 9.38337 8.83292C9.22865 8.98763 9.01881 9.07454 8.80001 9.07454C8.5812 9.07454 8.37136 8.98763 8.21664 8.83292C8.06193 8.67821 7.97501 8.46838 7.97501 8.24958C7.97501 7.44734 8.29371 6.67796 8.86101 6.11069C9.4283 5.54342 10.1977 5.22474 11 5.22474V5.22474Z" fill="black"/>
</svg>
