<svg width="24" height="24" viewBox="0 0 24 24" fill="none" xmlns="http://www.w3.org/2000/svg">
<path fill-rule="evenodd" clip-rule="evenodd" d="M1.20236 13.1962C0.0985997 13.1962 -0.419687 11.6956 0.405733 10.8906L11.2034 0.33292C11.4229 0.118452 11.7064 0 12 0C12.2936 0 12.5771 0.118452 12.7966 0.33292L23.5943 10.8906C24.4197 11.6956 23.9014 13.1962 22.7976 13.1962H21.5979V22.4341C21.5979 22.7841 21.4715 23.1198 21.2465 23.3673C21.0215 23.6148 20.7164 23.7538 20.3982 23.7538H3.60183C3.28364 23.7538 2.97849 23.6148 2.75349 23.3673C2.5285 23.1198 2.4021 22.7841 2.4021 22.4341V13.1962H1.20236ZM8.40079 21.1144V14.5159C8.40079 14.1659 8.52719 13.8302 8.75218 13.5827C8.97718 13.3352 9.28234 13.1962 9.60053 13.1962H14.3995C14.7177 13.1962 15.0228 13.3352 15.2478 13.5827C15.4728 13.8302 15.5992 14.1659 15.5992 14.5159V21.1144H19.1984V11.8764C19.1984 11.6417 19.2553 11.4111 19.3633 11.2086C19.4713 11.0061 19.6264 10.8389 19.8127 10.7243L12 3.0832L4.18731 10.7243C4.3736 10.8389 4.52874 11.0061 4.63672 11.2086C4.7447 11.4111 4.80161 11.6417 4.80157 11.8764V21.1144H8.40079ZM10.8003 21.1144V15.8356H13.1997V21.1144H10.8003Z" fill="black"/>
</svg>
