<svg width="263" height="95" viewBox="0 0 263 95" fill="none" xmlns="http://www.w3.org/2000/svg">
<path d="M80.4204 67.7654C77.9992 67.1353 75.5092 66.8005 73.0058 66.7684C70.8567 66.7684 68.9509 67.1294 67.972 67.7654C66.9235 68.3957 66.3268 69.9369 66.3268 71.9308C66.3268 75.6838 68.25 77.2709 72.9189 77.2709C74.9753 77.2709 76.7595 77.0417 80.4494 76.3197V85.0517C77.1997 86.3638 75.0043 86.6846 69.7851 86.6846C63.9287 86.6846 60.679 85.8252 58.2576 83.6021C55.3265 80.9378 54 76.95 54 70.9339C54 65.4564 55.2338 61.4284 57.6146 59.1652C59.9954 56.902 63.8823 55.6816 69.1015 55.6816C72.9633 55.6134 76.8035 56.2665 80.4204 57.6068V67.7654Z" fill="#353533"/>
<path d="M108.805 55.888C110.959 55.888 113.062 56.4609 114.25 57.2459C116.41 58.7528 117.569 61.291 117.569 64.4824C117.569 67.8801 116.335 70.6819 114.14 72.1773C112.981 72.9909 111.823 73.3233 109.471 73.6269L118.739 86.0717H105.329L99.9302 77.5173C99.6091 77.0314 99.3338 76.5175 99.1077 75.9818H98.8759C98.9889 76.6235 99.0508 77.2729 99.0613 77.9242V86.0717H87.4759V55.888H108.805ZM101.668 70.3267C104.692 70.3267 105.879 69.4214 105.879 67.0665C105.879 65.1241 104.825 64.2017 102.63 64.2017H99.0613V70.3553L101.668 70.3267Z" fill="#353533"/>
<path d="M151.566 58.667C153.854 60.9588 155.134 65.0956 155.134 70.1606C155.134 76.3658 153.211 81.3907 149.875 84.1925C147.633 86.003 143.787 87 138.938 87C134.362 87 130.973 86.0947 128.639 84.2842C125.03 81.4766 123.153 76.3658 123.153 69.5303C123.153 64.3737 124.659 60.3629 127.358 58.1685C130.058 55.974 134.043 55 139.349 55C144.974 55 149.098 56.2261 151.566 58.667ZM134.547 70.6992C134.547 75.8158 135.92 77.9873 139.181 77.9873C142.443 77.9873 143.758 75.9533 143.758 71.381C143.758 66.9921 142.524 65.3592 139.181 65.3592C135.961 65.3649 134.547 66.9979 134.547 70.7049V70.6992Z" fill="#353533"/>
<path d="M192.219 86.0946H180.321L173.411 72.0169C173.14 71.4987 172.926 70.9531 172.773 70.3897H172.495C172.651 71.303 172.743 72.2257 172.773 73.1514V86.0946H161.929V55.888H175.195L179.73 65.17C180.375 66.5803 180.924 68.0312 181.376 69.513H181.601C181.458 68.4781 181.383 67.435 181.376 66.3904V55.888H192.219V86.0946Z" fill="#353533"/>
<path d="M227.427 58.667C229.744 60.9588 230.995 65.0956 230.995 70.1606C230.995 76.3658 229.078 81.3907 225.736 84.1925C223.494 86.003 219.653 87 214.799 87C210.223 87 206.84 86.0947 204.505 84.2842C200.891 81.4766 199.014 76.3658 199.014 69.5303C199.014 64.3737 200.52 60.3629 203.225 58.1685C205.93 55.974 209.904 55 215.21 55C220.841 55 224.959 56.2261 227.427 58.667ZM210.408 70.6992C210.408 75.8158 211.781 77.9873 215.042 77.9873C218.199 77.9873 219.619 75.9533 219.619 71.381C219.619 66.9921 218.379 65.3592 215.042 65.3592C211.827 65.3649 210.408 66.9979 210.408 70.7049V70.6992Z" fill="#353533"/>
<path d="M262.131 65.5938C259.119 65.1111 256.076 64.8373 253.025 64.7745C249.642 64.7745 248.449 65.273 248.449 66.6767C248.449 67.9029 249.323 68.4873 251.2 68.4873H252.614C256.414 68.4873 258.516 68.8024 259.889 69.5759C261.952 70.7505 263 73.1512 263 76.6807C263 83.7854 259.385 86.6846 250.511 86.6846C246.278 86.6206 242.057 86.2375 237.883 85.5387V77.9469C240.847 78.4307 243.846 78.6741 246.85 78.6746C250.465 78.6746 251.287 78.3079 251.287 76.8583C251.287 75.5978 250.604 75.0936 248.68 75.0936C243.878 75.0535 243.05 75.0076 241.544 74.555C238.433 73.6955 236.736 70.4812 236.736 65.4563C236.736 58.0078 240.397 55.3206 250.465 55.3206C254.391 55.3203 258.305 55.7605 262.131 56.6327V65.5938Z" fill="#353533"/>
<path d="M41.147 3C30.8167 3.22457 20.9963 7.63941 13.8445 15.274C6.69279 22.9086 2.79511 33.1381 3.00831 43.7137C3.00831 44.1503 3.07747 44.5693 3.10053 45L42 44.1562L41.147 3Z" fill="#E84157" stroke="#E84157" stroke-width="5" stroke-linecap="round" stroke-linejoin="round"/>
<path d="M43 91.9916C32.6093 92.2051 22.5583 88.33 15.0572 81.2185C7.55609 74.1069 3.21911 64.3412 3 54.0689C3 53.6448 3 53.2379 3.03478 52.8195L42.1594 52L43 91.9916Z" fill="#FCC33C" stroke="#FCC33C" stroke-width="5" stroke-linecap="round" stroke-linejoin="round"/>
<path d="M49 3.00825C59.3902 2.79641 69.4404 6.66926 76.9411 13.7754C84.4419 20.8816 88.7794 30.6394 89 40.9039C89 41.3277 88.9652 41.7401 88.9652 42.1581L49.8348 43L49 3.00825Z" fill="#51C1F0" stroke="#51C1F0" stroke-width="5" stroke-linecap="round" stroke-linejoin="round"/>
<path d="M19.5 78C20.8807 78 22 76.8807 22 75.5C22 74.1193 20.8807 73 19.5 73C18.1193 73 17 74.1193 17 75.5C17 76.8807 18.1193 78 19.5 78Z" fill="#51C1F0" stroke="#51C1F0" stroke-width="2.13" stroke-linecap="round" stroke-linejoin="round"/>
<path d="M73 23C74.6569 23 76 21.6569 76 20C76 18.3431 74.6569 17 73 17C71.3431 17 70 18.3431 70 20C70 21.6569 71.3431 23 73 23Z" fill="#E84157" stroke="#E84157" stroke-width="1.9" stroke-linecap="round" stroke-linejoin="round"/>
<path d="M19.5 24C20.8807 24 22 22.6569 22 21C22 19.3431 20.8807 18 19.5 18C18.1193 18 17 19.3431 17 21C17 22.6569 18.1193 24 19.5 24Z" fill="#FCC33C" stroke="#FCC33C" stroke-width="1.9" stroke-linecap="round" stroke-linejoin="round"/>
</svg>
